<?xml version="1.0" encoding="UTF-8"?>
<svg id="_圖層_1" data-name="圖層 1" xmlns="http://www.w3.org/2000/svg" viewBox="0 0 80.34 90">
  <defs>
    <style>
      .cls-1 {
        fill: #e6c422;
      }
    </style>
  </defs>
  <path class="cls-1" d="M78.22,22.39v-.1c0-12.31-9.98-22.29-22.29-22.29h-31.51C12.1,0,2.12,9.98,2.12,22.29v.1c-1.27.81-2.12,2.22-2.12,3.83v9.46c0,1.61.85,3.02,2.12,3.83v32.23c0,4.12,2.87,7.57,6.72,8.46-.05.28-.08.57-.08.87v3.75c0,2.85,2.33,5.18,5.18,5.18h2.27c2.85,0,5.18-2.33,5.18-5.18v-3.75c0-.22-.02-.43-.04-.64h37.67c-.03.21-.04.42-.04.64v3.75c0,2.85,2.33,5.18,5.18,5.18h2.27c2.85,0,5.18-2.33,5.18-5.18v-3.75c0-.3-.03-.58-.08-.87,3.85-.89,6.72-4.34,6.72-8.46v-32.23c1.27-.81,2.12-2.22,2.12-3.83v-9.46c0-1.61-.85-3.02-2.12-3.83ZM20.21,9.76c0-.73.6-1.33,1.33-1.33h37.26c.73,0,1.33.6,1.33,1.33v2.96c0,.73-.6,1.33-1.33,1.33H21.54c-.73,0-1.33-.6-1.33-1.33v-2.96ZM20.75,72.75c-3.04,0-5.5-2.46-5.5-5.5s2.46-5.5,5.5-5.5,5.5,2.46,5.5,5.5-2.46,5.5-5.5,5.5ZM59.59,72.75c-3.04,0-5.5-2.46-5.5-5.5s2.46-5.5,5.5-5.5,5.5,2.46,5.5,5.5-2.46,5.5-5.5,5.5ZM66.93,43.92c0,1.52-1.24,2.76-2.76,2.76H16.17c-1.52,0-2.76-1.24-2.76-2.76v-23.07c0-1.52,1.24-2.76,2.76-2.76h48.01c1.52,0,2.76,1.24,2.76,2.76v23.07Z"/>
</svg>