<?xml version="1.0" encoding="UTF-8"?>
<svg id="_圖層_1" data-name="圖層 1" xmlns="http://www.w3.org/2000/svg" viewBox="0 0 50 45.58">
  <defs>
    <style>
      .cls-1 {
        fill: #27509e;
      }
    </style>
  </defs>
  <path class="cls-1" d="M48.93,20.05L27.07.78c-1.18-1.04-2.95-1.04-4.14,0L1.07,20.05c-2.16,1.91-.81,5.47,2.07,5.47h1.95v15.88c0,2.31,1.87,4.18,4.18,4.18h31.48c2.31,0,4.18-1.87,4.18-4.18v-15.88h1.95c2.88,0,4.23-3.57,2.07-5.47ZM24.01,41.86h-6.71v-6.71h6.71v6.71ZM24.01,33.08h-6.71v-6.71h6.71v6.71ZM32.7,41.86h-6.71v-6.71h6.71v6.71ZM32.7,33.08h-6.71v-6.71h6.71v6.71Z"/>
</svg>