<?xml version="1.0" encoding="UTF-8"?>
<svg id="_圖層_1" data-name="圖層 1" xmlns="http://www.w3.org/2000/svg" viewBox="0 0 73.73 65.8">
  <defs>
    <style>
      .cls-1 {
        fill: #fff;
      }

      .cls-2 {
        fill: #28539e;
      }
    </style>
  </defs>
  <path class="cls-2" d="M71.12,35.29c1.45,0,2.62-1.17,2.62-2.62,0-.82-.38-1.56-.97-2.04L39.53.67c-1.02-.92-2.57-.88-3.55.05L.91,30.69c-1.09.94-1.22,2.59-.29,3.68.51.6,1.25.91,1.98.92h8.79v26.01c0,2.47,2.02,4.5,4.5,4.5h42.13c2.47,0,4.5-2.03,4.5-4.5v-26.01h8.59"/>
  <g>
    <rect class="cls-1" x="23.49" y="32.96" width="11.7" height="11.7"/>
    <rect class="cls-1" x="38.55" y="32.96" width="11.7" height="11.7"/>
    <rect class="cls-1" x="23.49" y="47.75" width="11.7" height="11.7"/>
    <rect class="cls-1" x="38.55" y="47.75" width="11.7" height="11.7"/>
  </g>
</svg>