<?xml version="1.0" encoding="UTF-8"?>
<svg id="_圖層_1" data-name="圖層 1" xmlns="http://www.w3.org/2000/svg" viewBox="0 0 829.52 136.4">
  <defs>
    <style>
      .cls-1 {
        fill: #fff;
      }
    </style>
  </defs>
  <path class="cls-1" d="M91.99,107.18c-4.55-1.96-9.08-3.88-13.6-5.75-2.57-1.07-5.02-2.04-7.36-2.95h40.47v-13.84h-47.82c.36-2.3.67-4.67.94-7.12h50.42v-14.25h-48.78v-7.26h37.56v-13.84h-37.56v-6.99h43.53v-14.39h-23.7c.62-.94,1.26-1.91,1.93-2.95,2.15-3.33,4.25-6.83,6.28-10.48l-15.73-4.52c-.73,1.92-1.63,4.04-2.68,6.37-1.06,2.33-2.19,4.61-3.41,6.85-.92,1.69-1.82,3.27-2.7,4.73h-26.97l3.7-1.78c-.73-2.37-1.95-5.05-3.66-8.02-1.71-2.97-3.54-5.69-5.49-8.15l-13.05,5.75c1.79,2.56,3.49,5.44,5.12,8.63.64,1.26,1.18,2.43,1.67,3.56H7.85v14.39h43.29v6.99H14.93v13.84h36.22v7.26H4.08v14.25h45.08c-.27,2.49-.59,4.88-.98,7.12H6.76v13.84h36.71c-1.82,3-4.38,5.69-7.69,8.08-3.41,2.47-7.91,4.59-13.47,6.37-5.57,1.78-12.5,3.31-20.79,4.59.89,1.19,1.85,2.67,2.87,4.45,1.02,1.78,1.93,3.58,2.74,5.41.81,1.83,1.38,3.47,1.71,4.93,9.27-1.74,17.07-3.84,23.41-6.3,6.34-2.47,11.52-5.39,15.55-8.77,4.02-3.38,7.19-7.19,9.51-11.44,1.26-2.3,2.33-4.75,3.22-7.33h4.37l-5.46,10.41c3.98,1.64,8.23,3.47,12.74,5.48,4.51,2.01,9.04,4.11,13.6,6.3,4.55,2.19,8.78,4.34,12.68,6.44,3.9,2.1,7.19,4.02,9.88,5.75l6.95-14.25c-2.93-1.64-6.4-3.47-10.43-5.48-4.02-2.01-8.31-3.99-12.86-5.96Z"/>
  <path class="cls-1" d="M163.45,28.47h-12.38c.12-7.34.18-14.87.18-22.61h-14.39c0,7.75-.03,15.28-.08,22.61h-14.44v16.03h14.21c-.15,5.7-.36,11.22-.68,16.51-.49,8.27-1.36,16.01-2.62,23.22-1.26,7.22-3.05,13.86-5.37,19.93-2.32,6.08-5.39,11.53-9.21,16.37,1.22.82,2.52,1.92,3.9,3.29,1.38,1.37,2.68,2.83,3.9,4.38,1.22,1.55,2.19,3.01,2.93,4.38,5.28-6.85,9.41-14.77,12.38-23.77,2.97-9,5.1-18.88,6.4-29.66,1.3-10.78,2.13-22.31,2.5-34.59,0-.02,0-.05,0-.07h12.51c-.17,8.59-.33,16.21-.5,22.81-.24,9.64-.53,17.52-.85,23.63-.33,6.12-.73,10.78-1.22,13.97-.49,3.2-1.06,5.3-1.71,6.3-.57,1.01-1.18,1.69-1.83,2.06-.65.37-1.42.55-2.32.55-1.14,0-2.72-.04-4.76-.14-2.03-.09-4.27-.23-6.71-.41,1.22,2.28,2.19,5,2.93,8.15.73,3.15,1.14,5.91,1.22,8.29,2.84.18,5.57.25,8.17.21,2.6-.05,4.8-.3,6.58-.75,2.03-.46,3.78-1.19,5.24-2.19,1.46-1.01,2.88-2.65,4.27-4.93.98-1.55,1.79-4.2,2.44-7.95.65-3.74,1.16-8.91,1.52-15.48.37-6.58.69-15,.98-25.28.28-10.28.55-22.72.79-37.33.08-.73.12-1.69.12-2.88v-4.66h-14.14Z"/>
  <path class="cls-1" d="M184.42,129.72h14.02v-9.59h15.73v8.63h14.63V19.56h-44.38v110.15ZM214.17,35.45v68.92h-15.73V35.45h15.73Z"/>
  <path class="cls-1" d="M340.99,97.93c-.33,4.75-.77,8.36-1.34,10.82-.57,2.47-1.42,4.16-2.56,5.07-1.14.91-2.8,1.37-5,1.37h-23.78c-2.44,0-4.29-.23-5.55-.69-1.26-.46-2.07-1.35-2.44-2.67-.37-1.32-.55-3.31-.55-5.96v-42.37l10.12-4.93v41.95h13.66v-48.6l9.53-4.64c0,.21-.01.41-.02.63-.16,5.39-.39,10.78-.67,16.17-.29,5.39-.59,10.5-.91,15.34-.33,4.84-.73,9.09-1.22,12.74l11.83,3.7c1.06-5.48,1.93-11.74,2.62-18.77.69-7.03,1.26-14.18,1.71-21.44.45-7.26.79-14.09,1.04-20.48l.49-2.47-10.97-3.97-13.41,6.43V3.81h-13.66v37.91l-10.12,4.85v-29.47h-13.9v36.14l-12.07,5.79,5.37,14.52,6.71-3.26v35.6c0,6.3.61,11.19,1.83,14.66,1.22,3.47,3.39,5.89,6.52,7.26,3.13,1.37,7.46,2.06,12.99,2.06h26.09c4.71,0,8.45-.82,11.22-2.47,2.76-1.64,4.84-4.34,6.22-8.08,1.38-3.74,2.4-8.86,3.05-15.34-2.03-.46-4.29-1.25-6.77-2.4-2.48-1.14-4.49-2.35-6.04-3.63Z"/>
  <path class="cls-1" d="M266.73,81.15v-29.94h11.34v-15.62h-11.34V5.72h-13.66v29.87h-13.17v15.62h13.17v36.25c-1.43.65-2.84,1.29-4.21,1.91-4.35,1.97-8.23,3.63-11.65,5l5.85,16.44c5.61-2.74,11.68-5.89,18.23-9.45,6.54-3.56,13.03-7.12,19.45-10.69l-3.29-14.52c-3.56,1.67-7.15,3.34-10.73,5Z"/>
  <path class="cls-1" d="M432.44,108.07h26.7v-12.6h-26.7v-6.99h30.36v-12.88h-30.36v-8.49h-14.39v8.49h-14.08c.72-1.86,1.39-3.73,2.01-5.62l-12.44-4.11c-1.55,5.02-3.62,9.77-6.22,14.25-2.36,4.06-4.95,7.59-7.78,10.59.01-.15.03-.3.04-.45.37-5.11.55-9.77.55-13.98v-11.65h89.01v-13.15h-17.93l6.72-6.44c-4.23-1.46-9.07-3.06-14.51-4.8-1.56-.5-3.15-.99-4.75-1.49,5.53-2.16,10.57-4.44,15.12-6.86l-6.17-4.25h18v-12.88h-42.4c-.71-1.43-1.56-2.95-2.6-4.59-1.87-2.97-3.74-5.59-5.61-7.88l-9.88,5.34c1.52,2.17,3.02,4.56,4.51,7.12h-42.44v12.88h21.14l-6.99,5.89c5.69,1.28,11.65,2.74,17.86,4.38,1.72.45,3.41.93,5.12,1.39-3.24.82-6.51,1.6-9.81,2.31-6.34,1.37-12.4,2.56-18.17,3.56,1.22,1.01,2.62,2.4,4.21,4.18.67.76,1.29,1.46,1.87,2.12h-16.44v24.52c0,4.75-.22,9.93-.67,15.55-.45,5.62-1.44,11.21-2.99,16.78-1.55,5.57-3.98,10.64-7.32,15.21,1.06.64,2.34,1.6,3.84,2.88,1.5,1.28,2.95,2.62,4.33,4.04,1.38,1.42,2.44,2.62,3.17,3.63,2.93-3.93,5.28-8.31,7.07-13.15,1.79-4.84,3.17-9.89,4.15-15.14.81-4.37,1.4-8.69,1.79-12.97.53.99,1.09,2.15,1.69,3.51.85,1.97,1.69,3.88,2.5,5.75.81,1.87,1.34,3.4,1.59,4.59,2.48-2.48,4.84-5.32,7.07-8.5v9.87h25.85v7.81h-37.07v13.29h90.11v-13.29h-38.65v-7.81ZM399.05,27.64h40.22c-2.62,1.24-5.54,2.45-8.78,3.63-2.51.92-5.1,1.81-7.78,2.69-4.86-1.41-9.74-2.77-14.66-4.06-3.08-.81-6.08-1.56-9.01-2.26ZM402.02,50.05c6.14-1.51,12.32-3.2,18.53-5.07.57-.17,1.13-.35,1.7-.53,4.36,1.34,8.53,2.7,12.51,4.09,2.91,1.02,5.61,2,8.11,2.95h-46.92c1.99-.46,4-.93,6.06-1.44ZM394.04,95.46c1.06-1.65,2.1-3.38,3.1-5.21.33-.59.64-1.19.95-1.78h19.96v6.99h-24.01Z"/>
  <path class="cls-1" d="M573.28,84.99c1.96-.15,3.68-.58,5.12-1.31,1.71-.73,2.87-1.76,3.48-3.08.61-1.32.91-3.4.91-6.23v-39.6h-25.85v-3.97h30.61v-12.74h-5.98l3.18-4.66c-1.3-.91-2.99-1.94-5.06-3.08-2.07-1.14-4.19-2.33-6.34-3.56-2.15-1.23-4.13-2.26-5.91-3.08l-6.71,8.77c1.87,1.1,3.88,2.31,6.04,3.63,1.09.67,2.15,1.33,3.2,1.99h-13.01V3.81h-13.53v14.25h-29.14v12.74h29.14v3.97h-25.61v49.46h12.32v-12.33h13.29v10.14h13.53v-10.14h13.05v2.19c0,.64-.1,1.07-.31,1.3-.2.23-.63.34-1.28.34h-2.93c-1.46,0-2.97-.04-4.51-.14.65,1.28,1.36,2.81,2.13,4.59.66,1.52,1.15,2.96,1.48,4.32h-4.35v5.07h-50.12v13.15h15.24l-4.27,4.8c1.95,1.64,4.08,3.43,6.4,5.34,2.32,1.92,4.51,3.79,6.58,5.62,2.07,1.83,3.76,3.47,5.06,4.93l9.15-10.96c-1.46-1.37-3.27-2.92-5.43-4.66-2.07-1.67-4.22-3.36-6.44-5.07h23.82v13.97c0,.82-.16,1.37-.49,1.64-.33.27-.94.41-1.83.41-.9.09-2.68.12-5.37.07-2.68-.05-5.41-.11-8.17-.21.81,1.92,1.59,4.18,2.32,6.78.73,2.6,1.22,4.95,1.46,7.06,4.31,0,8.05-.12,11.22-.34,3.17-.23,5.89-.85,8.17-1.85,2.28-1.1,3.8-2.67,4.57-4.73.77-2.06,1.16-4.86,1.16-8.43v-14.39h15.85v-13.15h-15.85v-4.58ZM569.99,45.32v4.38h-13.05v-4.38h13.05ZM543.4,45.32v4.38h-13.29v-4.38h13.29ZM530.11,62.99v-4.11h13.29v4.11h-13.29ZM556.94,62.99v-4.11h13.05v4.11h-13.05Z"/>
  <polygon class="cls-1" points="514.26 53.27 514.26 38.33 502.43 38.33 502.43 3.81 488.04 3.81 488.04 38.33 474.75 38.33 474.75 53.27 488.04 53.27 488.04 132.46 502.43 132.46 502.43 53.27 514.26 53.27"/>
  <path class="cls-1" d="M650.1,50.11h-18.66v-5.62h15.24v-18.39c1.31.84,2.73,2.02,4.27,3.59,1.87,1.92,3.37,3.65,4.51,5.21,2.4-2.25,4.55-4.61,6.46-7.07v6.25h37.68v-9.18h-35.55c.76-1.12,1.47-2.26,2.14-3.43.08-.14.15-.28.22-.41h38.8v-10.14h-33.93c.62-1.53,1.21-3.08,1.74-4.66l-12.44-2.19c-1.22,3.65-3.03,7.4-5.43,11.23-2.22,3.54-5.05,6.73-8.47,9.57v-2.72h-15.24v-4.93h17.68V7.92h-50.12v51.52h51.09v-9.32ZM634.37,36h-23.05v-5.34h23.05v5.34ZM619.98,17.23v4.93h-8.66v-4.93h8.66ZM611.32,44.5h8.66v5.62h-8.66v-5.62Z"/>
  <path class="cls-1" d="M654.61,59.7h48.65v-22.06h-48.65v22.06ZM688.14,45.18h5.12v6.85h-5.12v-6.85ZM676.07,45.18h5v6.85h-5v-6.85ZM664.24,45.18h4.76v6.85h-4.76v-6.85Z"/>
  <path class="cls-1" d="M695.46,108.34c-.16,3.01-.41,5.25-.73,6.71-.33,1.46-.81,2.44-1.46,2.95-.65.5-1.63.75-2.93.75h-14.88c-2.44,0-4.01-.21-4.69-.62-.69-.41-1.04-1.44-1.04-3.08v-5.48h19.39v-46.17h-77.55v46.17h15.51c-.37.73-.78,1.42-1.25,2.06-1.22,1.64-3.11,3.01-5.67,4.11-2.56,1.1-6.04,1.99-10.43,2.67-4.39.68-10.04,1.21-16.95,1.58,1.22,1.55,2.46,3.58,3.72,6.1,1.26,2.51,2.13,4.68,2.62,6.51,8.05-.82,14.71-1.94,20-3.36,5.28-1.42,9.55-3.2,12.8-5.34,3.25-2.15,5.69-4.73,7.32-7.74,1.07-1.99,1.95-4.19,2.67-6.58h13.43v5.48c0,4.11.53,7.33,1.59,9.66,1.06,2.33,2.91,3.97,5.55,4.93,2.64.96,6.36,1.44,11.16,1.44h18.17c3.49,0,6.32-.53,8.47-1.58,2.15-1.05,3.78-2.86,4.88-5.41,1.1-2.56,1.89-6.17,2.38-10.82-1.87-.46-4.01-1.14-6.4-2.06-2.4-.91-4.29-1.87-5.67-2.88ZM625.47,71.76h49.14v4.52h-49.14v-4.52ZM625.47,84.23h49.14v4.38h-49.14v-4.38ZM625.47,96.56h49.14v4.52h-49.14v-4.52Z"/>
  <path class="cls-1" d="M732.89,132.46h14.39v-3.7h42.68v3.29h15.12v-46.58h-72.19v46.99ZM747.28,118.07v-5.75h42.68v5.75h-42.68ZM789.96,96.15v5.48h-42.68v-5.48h42.68Z"/>
  <path class="cls-1" d="M812.89,30.8c-5.04-1.73-9.88-3.74-14.51-6.03-4.63-2.28-8.88-4.75-12.74-7.4-3.21-2.2-6.03-4.51-8.48-6.9.63-.84,1.24-1.69,1.83-2.55l-12.93-5.21c-3.58,5.21-8.27,9.98-14.08,14.32-5.81,4.34-12.25,8.11-19.33,11.3-7.07,3.2-14.39,5.8-21.95,7.81.81,1.01,1.75,2.31,2.8,3.9,1.06,1.6,2.03,3.2,2.93,4.8.89,1.6,1.59,2.95,2.07,4.04,2.58-.87,5.14-1.81,7.68-2.81v34.87h84.99v-35.66c2.56.94,5.12,1.77,7.68,2.51.98-1.92,2.38-4.13,4.21-6.64,1.83-2.51,3.48-4.5,4.94-5.96-5.04-1.19-10.08-2.65-15.12-4.38ZM762.71,25.32c2.46-1.98,4.77-4.05,6.93-6.2,1.9,1.94,3.91,3.82,6.06,5.66,1.32,1.13,2.69,2.22,4.08,3.29h-20.61c1.2-.9,2.38-1.8,3.55-2.74ZM784.88,70.8h-10.9v-17.13h8.86c-.48,2.05-1.15,4.41-2.03,7.12-.98,3.01-1.91,5.62-2.8,7.81l6.87,2.19ZM762.16,70.8h-12.39l7.75-2.6c-.33-2.01-.94-4.38-1.83-7.12-.88-2.69-1.87-5.15-2.98-7.4h9.45v17.13ZM745.33,64.36c.69,2.42,1.17,4.55,1.45,6.44h-8.4v-17.13h13.81l-9.54,2.88c.98,2.38,1.87,4.98,2.68,7.81ZM798.25,70.8h-9.86c.91-1.72,1.85-3.72,2.84-6.03,1.18-2.74,2.46-5.57,3.84-8.49l-9.56-2.6h12.73v17.13ZM732.56,43.4c3.06-1.36,6.1-2.82,9.11-4.38,1.82-.95,3.61-1.93,5.36-2.95v2.68h43.17v-3.58c4.3,2.59,8.75,4.94,13.35,7.01.96.43,1.92.83,2.87,1.23h-73.87Z"/>
</svg>