<?xml version="1.0" encoding="UTF-8"?>
<svg id="_圖層_1" data-name="圖層 1" xmlns="http://www.w3.org/2000/svg" xmlns:xlink="http://www.w3.org/1999/xlink" viewBox="0 0 80.52 42.92">
  <defs>
    <style>
      .cls-1 {
        fill: url(#_未命名漸層_42);
      }

      .cls-2 {
        fill: url(#_未命名漸層_42-3);
      }

      .cls-3 {
        fill: url(#_未命名漸層_42-2);
      }
    </style>
    <linearGradient id="_未命名漸層_42" data-name="未命名漸層 42" x1="65.76" y1="40.09" x2="65.76" y2="4.44" gradientUnits="userSpaceOnUse">
      <stop offset="0" stop-color="#62b5cd"/>
      <stop offset=".22" stop-color="#5198bf"/>
      <stop offset=".56" stop-color="#3a71ad"/>
      <stop offset=".83" stop-color="#2c58a2"/>
      <stop offset="1" stop-color="#27509e"/>
    </linearGradient>
    <linearGradient id="_未命名漸層_42-2" data-name="未命名漸層 42" x1="14.92" y1="40.09" x2="14.92" y2="4.44" xlink:href="#_未命名漸層_42"/>
    <linearGradient id="_未命名漸層_42-3" data-name="未命名漸層 42" x1="40.01" x2="40.01" y2="4.44" xlink:href="#_未命名漸層_42"/>
  </defs>
  <g>
    <path class="cls-1" d="M75.29,19.2L59.18,3.1c-1.12-1.12-2.04-.74-2.04.85v6.89c0,1.16-.7,2.17-1.7,2.63,1.25,2.4,1.96,5.12,1.96,8s-.73,5.69-2.01,8.11c1.03.44,1.75,1.47,1.75,2.65v6.32c0,1.59.92,1.97,2.04.85l16.11-16.11c1.12-1.12,1.12-2.96,0-4.08Z"/>
    <path class="cls-3" d="M23.95,30.74c-.55,0-1,.46-1,1.01l.04,6.69c0,.14-.01.26-.03.35-.07-.05-.16-.13-.27-.23l-15.8-15.8c-.71-.71-.71-1.87,0-2.59l15.8-15.8c.1-.1.19-.18.27-.23.01.09.03.2.03.35v6.2c0,1.02.4,1.98,1.13,2.71.11.11.22.2.34.3.31-.61.65-1.21,1.03-1.78-.31-.34-.48-.77-.48-1.23v-6.2c0-1.6-.76-2.15-1.21-2.34-.45-.19-1.38-.33-2.51.8l-15.8,15.8c-1.5,1.49-1.5,3.93,0,5.43l15.8,15.8c1.13,1.13,2.06.99,2.51.8.45-.19,1.21-.74,1.21-2.35l-.04-6.69c0-.55-.46-1-1.01-1Z"/>
  </g>
  <path class="cls-2" d="M40.01,6.59c-8.2,0-14.87,6.67-14.87,14.87s6.67,14.87,14.87,14.87,14.87-6.67,14.87-14.87-6.67-14.87-14.87-14.87ZM41.89,29.34v2.62h-2.52v-2.44c-1.73-.08-3.4-.54-4.38-1.11l.77-3.01c1.08.59,2.6,1.13,4.27,1.13,1.47,0,2.47-.57,2.47-1.6s-.82-1.6-2.73-2.24c-2.75-.93-4.63-2.21-4.63-4.71,0-2.27,1.6-4.04,4.35-4.58v-2.45h2.52v2.27c1.72.08,2.88.44,3.73.85l-.75,2.91c-.67-.28-1.85-.87-3.71-.87-1.67,0-2.21.72-2.21,1.44,0,.85.9,1.39,3.09,2.21,3.06,1.08,4.3,2.5,4.3,4.81s-1.62,4.25-4.58,4.76Z"/>
</svg>