<?xml version="1.0" encoding="UTF-8"?>
<svg id="_圖層_1" data-name="圖層 1" xmlns="http://www.w3.org/2000/svg" xmlns:xlink="http://www.w3.org/1999/xlink" viewBox="0 0 80.52 42.92">
  <defs>
    <style>
      .cls-1 {
        fill: url(#_未命名漸層_42);
      }

      .cls-2 {
        fill: url(#_未命名漸層_42-2);
      }
    </style>
    <linearGradient id="_未命名漸層_42" data-name="未命名漸層 42" x1="43.71" y1="39.89" x2="43.71" y2="-.28" gradientUnits="userSpaceOnUse">
      <stop offset="0" stop-color="#62b5cd"/>
      <stop offset=".22" stop-color="#5198bf"/>
      <stop offset=".56" stop-color="#3a71ad"/>
      <stop offset=".83" stop-color="#2c58a2"/>
      <stop offset="1" stop-color="#27509e"/>
    </linearGradient>
    <linearGradient id="_未命名漸層_42-2" data-name="未命名漸層 42" x1="40.03" y1="39.89" x2="40.03" y2="-.28" xlink:href="#_未命名漸層_42"/>
  </defs>
  <path class="cls-1" d="M56.53,8.25h-5.57V2.04c0-.21-.17-.38-.38-.38h-14.17c-.21,0-.38.17-.38.38v6.21h-5.14c-3.62,0-6.55,2.94-6.55,6.55v8.81l.38-.25.38-.25,4.08-2.7.77-.51,2.55-1.68.02-.02c.14-.09.33-.05.42.08l.31.45,2.3,3.26c.05.07.07.15.05.24-.02.08-.07.15-.15.2l-2.2,1.34-.77.47-2.54,1.54-.77.46-3.82,2.32-.34.21-.34.21c.88,2.56,3.32,4.41,6.19,4.41h25.64c3.61,0,6.55-2.94,6.55-6.55v-12.02c0-3.61-2.94-6.55-6.55-6.55ZM48.73,4.14v3.81h-10.21v-3.81h10.21ZM38.83,13.69c0-.64.52-1.17,1.17-1.17h7.58c.65,0,1.17.53,1.17,1.17v1.65c0,.65-.52,1.17-1.17,1.17h-7.58c-.65,0-1.17-.52-1.17-1.17v-1.65Z"/>
  <path class="cls-2" d="M62.69,34.14H23.01V.38c0-.09-.03-.16-.08-.23h0v-.04h-.03c-.07-.07-.17-.12-.28-.12h-5.27c-.21,0-.38.17-.38.38v.93c0,.21.17.38.38.38h2.85s.07,32.88.07,32.88h.13v2.89c0,.21.18.38.38.38h5.11c-.59.53-.96,1.31-.96,2.16,0,1.61,1.31,2.92,2.92,2.92s2.92-1.31,2.92-2.92c0-.85-.37-1.63-.96-2.16h23.75c-.58.53-.95,1.31-.95,2.16,0,1.61,1.31,2.92,2.92,2.92s2.92-1.31,2.92-2.92c0-.85-.37-1.63-.95-2.16h5.19c.21,0,.38-.17.38-.38v-2.94c0-.21-.17-.38-.38-.38Z"/>
</svg>