<?xml version="1.0" encoding="UTF-8"?>
<svg id="_圖層_1" data-name="圖層 1" xmlns="http://www.w3.org/2000/svg" xmlns:xlink="http://www.w3.org/1999/xlink" viewBox="0 0 80.52 42.92">
  <defs>
    <style>
      .cls-1 {
        fill: url(#_未命名漸層_42);
      }

      .cls-2 {
        fill: url(#_未命名漸層_42-8);
      }

      .cls-3 {
        fill: url(#_未命名漸層_42-6);
      }

      .cls-4 {
        fill: url(#_未命名漸層_42-5);
      }

      .cls-5 {
        fill: url(#_未命名漸層_42-3);
      }

      .cls-6 {
        fill: url(#_未命名漸層_42-2);
      }

      .cls-7 {
        fill: url(#_未命名漸層_42-4);
      }

      .cls-8 {
        fill: url(#_未命名漸層_42-7);
      }
    </style>
    <linearGradient id="_未命名漸層_42" data-name="未命名漸層 42" x1="21.28" y1="44.93" x2="21.28" y2="2.66" gradientUnits="userSpaceOnUse">
      <stop offset="0" stop-color="#62b5cd"/>
      <stop offset=".22" stop-color="#5198bf"/>
      <stop offset=".56" stop-color="#3a71ad"/>
      <stop offset=".83" stop-color="#2c58a2"/>
      <stop offset="1" stop-color="#27509e"/>
    </linearGradient>
    <linearGradient id="_未命名漸層_42-2" data-name="未命名漸層 42" x1="61.2" y1="44.93" x2="61.2" y2="2.66" xlink:href="#_未命名漸層_42"/>
    <linearGradient id="_未命名漸層_42-3" data-name="未命名漸層 42" x1="61.32" y1="44.93" x2="61.32" y2="2.66" xlink:href="#_未命名漸層_42"/>
    <linearGradient id="_未命名漸層_42-4" data-name="未命名漸層 42" x1="19.21" y1="44.93" x2="19.21" y2="2.66" xlink:href="#_未命名漸層_42"/>
    <linearGradient id="_未命名漸層_42-5" data-name="未命名漸層 42" x1="37.74" y1="44.93" x2="37.74" y2="2.66" xlink:href="#_未命名漸層_42"/>
    <linearGradient id="_未命名漸層_42-6" data-name="未命名漸層 42" x1="32.42" y1="44.93" x2="32.42" y2="2.66" xlink:href="#_未命名漸層_42"/>
    <linearGradient id="_未命名漸層_42-7" data-name="未命名漸層 42" x1="43.75" y1="44.93" x2="43.75" y2="2.66" xlink:href="#_未命名漸層_42"/>
    <linearGradient id="_未命名漸層_42-8" data-name="未命名漸層 42" x1="48.13" y1="44.93" x2="48.13" y2="2.66" xlink:href="#_未命名漸層_42"/>
  </defs>
  <path class="cls-1" d="M11.06,33.03c-2.7,2.72-4.09,6.08-4.65,9.86H0c.16-3.09.97-5.93,2.35-8.61,3.89-7.57,10.35-11.57,18.51-13.04,6.43-1.15,11.51-4.21,14.86-9.92.25-.43.45-.9.68-1.35.87-1.72,2.65-2.4,4.3-1.64,1.65.77,2.34,2.58,1.54,4.33-2.1,4.57-5.3,8.21-9.55,10.88-1.49.94-3.13,1.67-4.74,2.4-.62.28-.85.55-.85,1.24.03,4.86.02,9.73.01,14.59,0,.36-.03.72-.05,1.12h-15.72v-9.77c-.09-.03-.18-.06-.27-.09Z"/>
  <path class="cls-6" d="M80.44,42.92h-6.31c-.56-3.77-1.96-7.16-4.87-10.1v10.04h-15.84c0-.42,0-.81,0-1.21,0-4.8-.01-9.6.01-14.39,0-.7-.19-1.05-.88-1.31-3.86-1.47-7.18-3.75-9.96-6.8-.29-.32-.55-.66-.72-.86,1.13-2.19,2.2-4.26,3.27-6.31.13.18.4.53.65.9,1.98,2.8,4.52,4.91,7.59,6.44,1,.5,1.93,1.18,2.78,1.91,1.37,1.18,2.66,2.46,3.94,3.73.41.4.74.44,1.23.17,1.2-.67,2.41-1.33,3.64-1.94.29-.14.73-.21,1.01-.09,8.36,3.66,13.26,9.96,14.51,19.04.02.17.02.33.02.5,0,.06-.03.13-.08.28Z"/>
  <path class="cls-5" d="M68.24,13.34c0,3.82-3.08,6.87-6.92,6.88-3.85,0-6.95-3.13-6.92-7,.03-3.73,3.15-6.85,6.88-6.86,3.84-.01,6.97,3.12,6.96,6.98Z"/>
  <path class="cls-7" d="M12.29,12.68c.04-3.81,3.16-6.86,6.99-6.81,3.84.04,6.89,3.13,6.86,6.95-.03,3.79-3.15,6.9-6.95,6.89-3.83,0-6.94-3.17-6.9-7.03Z"/>
  <path class="cls-4" d="M38.83,4.75c-.15.12-.4.48-.69.51-.25.02-.71-.3-.77-.54-.3-1.2-.51-2.42-.72-3.64-.11-.65.26-1.13.86-1.08.35.03.87.53.94.88.21,1.18.25,2.39.38,3.87Z"/>
  <path class="cls-3" d="M31.2,2.52c.34.22.63.33.82.53.79.81,1.6,1.62,2.31,2.5.19.24.07.74.1,1.11-.35-.01-.81.11-1.04-.06-.94-.7-1.84-1.46-2.67-2.27-.25-.24-.37-.77-.3-1.12.05-.26.49-.45.78-.7Z"/>
  <path class="cls-8" d="M45.39,2.29c-.12.36-.16.56-.25.73-.56,1.02-1.1,2.06-1.73,3.04-.16.24-.63.27-.96.4-.12-.33-.42-.73-.33-.99.39-1.13.85-2.25,1.4-3.31.16-.31.72-.55,1.1-.55.27,0,.54.45.77.67Z"/>
  <path class="cls-2" d="M46.54,9.7c-.29-.24-.61-.38-.7-.61-.08-.22,0-.64.16-.78,1.01-.82,2.04-1.64,3.13-2.35.25-.16.87-.03,1.12.19.2.18.26.93.1,1.04-1.21.87-2.49,1.65-3.82,2.5Z"/>
</svg>