<?xml version="1.0" encoding="UTF-8"?>
<svg id="_圖層_1" data-name="圖層 1" xmlns="http://www.w3.org/2000/svg" xmlns:xlink="http://www.w3.org/1999/xlink" viewBox="0 0 80.52 42.92">
  <defs>
    <style>
      .cls-1 {
        fill: url(#_未命名漸層_42);
        fill-rule: evenodd;
      }
    </style>
    <linearGradient id="_未命名漸層_42" data-name="未命名漸層 42" x1="40.26" y1="41.19" x2="40.26" y2="2.77" gradientUnits="userSpaceOnUse">
      <stop offset="0" stop-color="#62b5cd"/>
      <stop offset=".22" stop-color="#5198bf"/>
      <stop offset=".56" stop-color="#3a71ad"/>
      <stop offset=".83" stop-color="#2c58a2"/>
      <stop offset="1" stop-color="#27509e"/>
    </linearGradient>
  </defs>
  <path class="cls-1" d="M57.35,21.63v10.38l-.69.41c-10.71,6.25-21.4,5.82-32.27-.02l-.66-.36v-10.13l16.53,7.68,17.09-7.96ZM57.35,33.59v2.42c-10.28,6.02-21.4,6.56-33.62,0v-2.42c12.22,6.56,23.34,6.02,33.62,0h0ZM60.69,18.57l-14.16-6.12,1.22-1.61,15.38,6.58v13.14l-1.28-1.61-1.17,1.61v-11.99ZM12.46,15.12L40.26,2.19l27.8,12.93-3.24,1.53-17.5-7.5-2.96,3.85,14.67,6.33-18.77,8.75L12.46,15.12Z"/>
</svg>