<?xml version="1.0" encoding="UTF-8"?>
<svg id="_圖層_1" data-name="圖層 1" xmlns="http://www.w3.org/2000/svg" viewBox="0 0 74.67 90">
  <defs>
    <style>
      .cls-1 {
        fill: #e6c422;
      }
    </style>
  </defs>
  <path class="cls-1" d="M50.81,0h-26.96C10.68,0,0,10.92,0,24.39v37.83c0,10.17,6.38,18.47,14.4,18.96l-4.73,5.71c-1.02,1.23-.14,3.1,1.46,3.1h8.79l8.79-8.79h17.33l8.72,8.72h8.79c1.6,0,2.48-1.87,1.46-3.1l-4.67-5.64c7.99-.52,14.35-8.81,14.35-18.96V24.39c0-13.47-10.68-24.39-23.85-24.39ZM16.67,70.74c-3.5,0-6.33-2.84-6.33-6.33s2.84-6.33,6.33-6.33,6.33,2.84,6.33,6.33-2.84,6.33-6.33,6.33ZM32.31,37.54c0,.42-.34.76-.76.76H11.19c-.42,0-.76-.34-.76-.76v-16.81c0-.42.34-.76.76-.76h20.36c.42,0,.76.34.76.76v16.81ZM43.12,38.3c-.42,0-.76-.34-.76-.76v-16.81c0-.42.34-.76.76-.76h20.36c.42,0,.76.34.76.76v16.81c0,.42-.34.76-.76.76h-20.36ZM58,70.74c-3.5,0-6.33-2.84-6.33-6.33s2.84-6.33,6.33-6.33,6.33,2.84,6.33,6.33-2.84,6.33-6.33,6.33Z"/>
</svg>